<svg version="1.0" preserveAspectRatio="xMidYMid meet" viewBox="255.92800899887516 126.35999890800001 954.0607424071991 555.659995198" zoomAndPan="magnify" xmlns:xlink="http://www.w3.org/1999/xlink" xmlns="http://www.w3.org/2000/svg" style="max-height: 500px" width="954.0607424071991" height="555.659995198"><defs><g/><clipPath id="e9d063c5d2"><rect height="354" y="0" width="815" x="0"/></clipPath><clipPath id="071de4c2e0"><path clip-rule="nonzero" d="M 310.703125 574.269531 L 1076.378906 574.269531 L 1076.378906 611.769531 L 310.703125 611.769531 Z M 310.703125 574.269531"/></clipPath><clipPath id="ca182f13e5"><path clip-rule="nonzero" d="M 329.453125 574.269531 L 1057.539062 574.269531 C 1062.511719 574.269531 1067.28125 576.242188 1070.796875 579.761719 C 1074.316406 583.277344 1076.289062 588.046875 1076.289062 593.019531 C 1076.289062 597.992188 1074.316406 602.761719 1070.796875 606.277344 C 1067.28125 609.792969 1062.511719 611.769531 1057.539062 611.769531 L 329.453125 611.769531 C 324.480469 611.769531 319.710938 609.792969 316.195312 606.277344 C 312.679688 602.761719 310.703125 597.992188 310.703125 593.019531 C 310.703125 588.046875 312.679688 583.277344 316.195312 579.761719 C 319.710938 576.242188 324.480469 574.269531 329.453125 574.269531 Z M 329.453125 574.269531"/></clipPath><clipPath id="d0f7fc677d"><path clip-rule="nonzero" d="M 0.703125 0.269531 L 766.378906 0.269531 L 766.378906 37.769531 L 0.703125 37.769531 Z M 0.703125 0.269531"/></clipPath><clipPath id="c4216e61c8"><path clip-rule="nonzero" d="M 19.453125 0.269531 L 747.539062 0.269531 C 752.511719 0.269531 757.28125 2.242188 760.796875 5.761719 C 764.316406 9.277344 766.289062 14.046875 766.289062 19.019531 C 766.289062 23.992188 764.316406 28.761719 760.796875 32.277344 C 757.28125 35.792969 752.511719 37.769531 747.539062 37.769531 L 19.453125 37.769531 C 14.480469 37.769531 9.710938 35.792969 6.195312 32.277344 C 2.679688 28.761719 0.703125 23.992188 0.703125 19.019531 C 0.703125 14.046875 2.679688 9.277344 6.195312 5.761719 C 9.710938 2.242188 14.480469 0.269531 19.453125 0.269531 Z M 19.453125 0.269531"/></clipPath><clipPath id="abe7b891fe"><rect height="38" y="0" width="767" x="0"/></clipPath><clipPath id="638c57de9a"><path clip-rule="nonzero" d="M 310.703125 324.039062 L 348.203125 324.039062 L 348.203125 609.683594 L 310.703125 609.683594 Z M 310.703125 324.039062"/></clipPath><clipPath id="e023672889"><path clip-rule="nonzero" d="M 329.453125 324.039062 C 334.425781 324.039062 339.195312 326.015625 342.710938 329.53125 C 346.230469 333.046875 348.203125 337.816406 348.203125 342.789062 L 348.203125 590.828125 C 348.203125 595.804688 346.230469 600.570312 342.710938 604.089844 C 339.195312 607.605469 334.425781 609.578125 329.453125 609.578125 C 324.480469 609.578125 319.710938 607.605469 316.195312 604.089844 C 312.679688 600.570312 310.703125 595.804688 310.703125 590.828125 L 310.703125 342.789062 C 310.703125 337.816406 312.679688 333.046875 316.195312 329.53125 C 319.710938 326.015625 324.480469 324.039062 329.453125 324.039062 Z M 329.453125 324.039062"/></clipPath><clipPath id="10ca2c2987"><path clip-rule="nonzero" d="M 0.703125 0.0390625 L 38.203125 0.0390625 L 38.203125 285.601562 L 0.703125 285.601562 Z M 0.703125 0.0390625"/></clipPath><clipPath id="c1912faa6c"><path clip-rule="nonzero" d="M 19.453125 0.0390625 C 24.425781 0.0390625 29.195312 2.015625 32.710938 5.53125 C 36.230469 9.046875 38.203125 13.816406 38.203125 18.789062 L 38.203125 266.828125 C 38.203125 271.804688 36.230469 276.570312 32.710938 280.089844 C 29.195312 283.605469 24.425781 285.578125 19.453125 285.578125 C 14.480469 285.578125 9.710938 283.605469 6.195312 280.089844 C 2.679688 276.570312 0.703125 271.804688 0.703125 266.828125 L 0.703125 18.789062 C 0.703125 13.816406 2.679688 9.046875 6.195312 5.53125 C 9.710938 2.015625 14.480469 0.0390625 19.453125 0.0390625 Z M 19.453125 0.0390625"/></clipPath><clipPath id="025c9ea3a3"><rect height="286" y="0" width="39" x="0"/></clipPath><clipPath id="81ff69c885"><path clip-rule="nonzero" d="M 260.550781 324.039062 L 348.148438 324.039062 L 348.148438 361.539062 L 260.550781 361.539062 Z M 260.550781 324.039062"/></clipPath><clipPath id="b9abfc16dc"><path clip-rule="nonzero" d="M 279.300781 324.039062 L 329.375 324.039062 C 334.347656 324.039062 339.117188 326.015625 342.632812 329.53125 C 346.148438 333.046875 348.125 337.816406 348.125 342.789062 C 348.125 347.761719 346.148438 352.53125 342.632812 356.046875 C 339.117188 359.5625 334.347656 361.539062 329.375 361.539062 L 279.300781 361.539062 C 274.328125 361.539062 269.558594 359.5625 266.042969 356.046875 C 262.527344 352.53125 260.550781 347.761719 260.550781 342.789062 C 260.550781 337.816406 262.527344 333.046875 266.042969 329.53125 C 269.558594 326.015625 274.328125 324.039062 279.300781 324.039062 Z M 279.300781 324.039062"/></clipPath><clipPath id="0a76b2cfe4"><path clip-rule="nonzero" d="M 0.550781 0.0390625 L 88.148438 0.0390625 L 88.148438 37.539062 L 0.550781 37.539062 Z M 0.550781 0.0390625"/></clipPath><clipPath id="27763b09dc"><path clip-rule="nonzero" d="M 19.300781 0.0390625 L 69.375 0.0390625 C 74.347656 0.0390625 79.117188 2.015625 82.632812 5.53125 C 86.148438 9.046875 88.125 13.816406 88.125 18.789062 C 88.125 23.761719 86.148438 28.53125 82.632812 32.046875 C 79.117188 35.5625 74.347656 37.539062 69.375 37.539062 L 19.300781 37.539062 C 14.328125 37.539062 9.558594 35.5625 6.042969 32.046875 C 2.527344 28.53125 0.550781 23.761719 0.550781 18.789062 C 0.550781 13.816406 2.527344 9.046875 6.042969 5.53125 C 9.558594 2.015625 14.328125 0.0390625 19.300781 0.0390625 Z M 19.300781 0.0390625"/></clipPath><clipPath id="265d9b4d03"><rect height="38" y="0" width="89" x="0"/></clipPath><clipPath id="f86ac47740"><path clip-rule="nonzero" d="M 260 132 L 489 132 L 489 361 L 260 361 Z M 260 132"/></clipPath><clipPath id="6f525b6064"><path clip-rule="nonzero" d="M 252.613281 341.921875 L 470.128906 124.402344 L 496.648438 150.917969 L 279.128906 368.4375 Z M 252.613281 341.921875"/></clipPath><clipPath id="354bdf6e66"><path clip-rule="nonzero" d="M 265.871094 328.660156 L 456.84375 137.6875 C 460.359375 134.171875 465.128906 132.199219 470.101562 132.199219 C 475.074219 132.199219 479.84375 134.171875 483.359375 137.6875 C 486.875 141.207031 488.851562 145.976562 488.851562 150.949219 C 488.851562 155.921875 486.875 160.691406 483.359375 164.207031 L 292.386719 355.179688 C 288.871094 358.695312 284.101562 360.671875 279.128906 360.671875 C 274.15625 360.671875 269.386719 358.695312 265.871094 355.179688 C 262.355469 351.664062 260.378906 346.894531 260.378906 341.921875 C 260.378906 336.949219 262.355469 332.179688 265.871094 328.660156 Z M 265.871094 328.660156"/></clipPath><clipPath id="32d39eeb36"><path clip-rule="nonzero" d="M 0.160156 0 L 228.878906 0 L 228.878906 228.71875 L 0.160156 228.71875 Z M 0.160156 0"/></clipPath><clipPath id="4ee5fa3d3a"><path clip-rule="nonzero" d="M -7.386719 209.921875 L 210.128906 -7.597656 L 236.648438 18.917969 L 19.128906 236.4375 Z M -7.386719 209.921875"/></clipPath><clipPath id="309ebe8b75"><path clip-rule="nonzero" d="M 5.871094 196.660156 L 196.84375 5.6875 C 200.359375 2.171875 205.128906 0.199219 210.101562 0.199219 C 215.074219 0.199219 219.84375 2.171875 223.359375 5.6875 C 226.875 9.207031 228.851562 13.976562 228.851562 18.949219 C 228.851562 23.921875 226.875 28.691406 223.359375 32.207031 L 32.386719 223.179688 C 28.871094 226.695312 24.101562 228.671875 19.128906 228.671875 C 14.15625 228.671875 9.386719 226.695312 5.871094 223.179688 C 2.355469 219.664062 0.378906 214.894531 0.378906 209.921875 C 0.378906 204.949219 2.355469 200.179688 5.871094 196.660156 Z M 5.871094 196.660156"/></clipPath><clipPath id="c784f6d758"><rect height="229" y="0" width="229" x="0"/></clipPath><clipPath id="ab7a021c75"><path clip-rule="nonzero" d="M 453 132 L 611 132 L 611 289 L 453 289 Z M 453 132"/></clipPath><clipPath id="a982631010"><path clip-rule="nonzero" d="M 472.550781 124.4375 L 617.976562 269.863281 L 591.460938 296.378906 L 446.035156 150.953125 Z M 472.550781 124.4375"/></clipPath><clipPath id="4e0ebf72e6"><path clip-rule="nonzero" d="M 485.808594 137.695312 L 604.714844 256.601562 C 608.234375 260.117188 610.207031 264.886719 610.207031 269.859375 C 610.207031 274.832031 608.234375 279.601562 604.714844 283.117188 C 601.199219 286.632812 596.429688 288.609375 591.457031 288.609375 C 586.484375 288.609375 581.714844 286.632812 578.199219 283.117188 L 459.292969 164.210938 C 455.777344 160.695312 453.800781 155.925781 453.800781 150.953125 C 453.800781 145.980469 455.777344 141.210938 459.292969 137.695312 C 462.808594 134.175781 467.578125 132.203125 472.550781 132.203125 C 477.523438 132.203125 482.292969 134.175781 485.808594 137.695312 Z M 485.808594 137.695312"/></clipPath><clipPath id="56618d6780"><path clip-rule="nonzero" d="M 0.601562 0 L 157.320312 0 L 157.320312 156.71875 L 0.601562 156.71875 Z M 0.601562 0"/></clipPath><clipPath id="36c83b54b5"><path clip-rule="nonzero" d="M 19.550781 -7.5625 L 164.976562 137.863281 L 138.460938 164.378906 L -6.964844 18.953125 Z M 19.550781 -7.5625"/></clipPath><clipPath id="6bc0354d11"><path clip-rule="nonzero" d="M 32.808594 5.695312 L 151.714844 124.601562 C 155.234375 128.117188 157.207031 132.886719 157.207031 137.859375 C 157.207031 142.832031 155.234375 147.601562 151.714844 151.117188 C 148.199219 154.632812 143.429688 156.609375 138.457031 156.609375 C 133.484375 156.609375 128.714844 154.632812 125.199219 151.117188 L 6.292969 32.210938 C 2.777344 28.695312 0.800781 23.925781 0.800781 18.953125 C 0.800781 13.980469 2.777344 9.210938 6.292969 5.695312 C 9.808594 2.175781 14.578125 0.203125 19.550781 0.203125 C 24.523438 0.203125 29.292969 2.175781 32.808594 5.695312 Z M 32.808594 5.695312"/></clipPath><clipPath id="0b0928655e"><rect height="157" y="0" width="158" x="0"/></clipPath><clipPath id="69fb023dcc"><path clip-rule="nonzero" d="M 573.222656 193.773438 L 610.722656 193.773438 L 610.722656 288.84375 L 573.222656 288.84375 Z M 573.222656 193.773438"/></clipPath><clipPath id="2d870f15d6"><path clip-rule="nonzero" d="M 591.972656 193.773438 C 596.945312 193.773438 601.714844 195.75 605.230469 199.265625 C 608.75 202.78125 610.722656 207.550781 610.722656 212.523438 L 610.722656 270.054688 C 610.722656 275.027344 608.75 279.796875 605.230469 283.3125 C 601.714844 286.828125 596.945312 288.804688 591.972656 288.804688 C 587 288.804688 582.230469 286.828125 578.714844 283.3125 C 575.199219 279.796875 573.222656 275.027344 573.222656 270.054688 L 573.222656 212.523438 C 573.222656 207.550781 575.199219 202.78125 578.714844 199.265625 C 582.230469 195.75 587 193.773438 591.972656 193.773438 Z M 591.972656 193.773438"/></clipPath><clipPath id="822b9826e3"><path clip-rule="nonzero" d="M 0.222656 0.773438 L 37.722656 0.773438 L 37.722656 95.84375 L 0.222656 95.84375 Z M 0.222656 0.773438"/></clipPath><clipPath id="12deb991e8"><path clip-rule="nonzero" d="M 18.972656 0.773438 C 23.945312 0.773438 28.714844 2.75 32.230469 6.265625 C 35.75 9.78125 37.722656 14.550781 37.722656 19.523438 L 37.722656 77.054688 C 37.722656 82.027344 35.75 86.796875 32.230469 90.3125 C 28.714844 93.828125 23.945312 95.804688 18.972656 95.804688 C 14 95.804688 9.230469 93.828125 5.714844 90.3125 C 2.199219 86.796875 0.222656 82.027344 0.222656 77.054688 L 0.222656 19.523438 C 0.222656 14.550781 2.199219 9.78125 5.714844 6.265625 C 9.230469 2.75 14 0.773438 18.972656 0.773438 Z M 18.972656 0.773438"/></clipPath><clipPath id="30781c5eef"><rect height="96" y="0" width="38" x="0"/></clipPath><clipPath id="04bfa0605f"><path clip-rule="nonzero" d="M 574.191406 193.773438 L 661.789062 193.773438 L 661.789062 231.273438 L 574.191406 231.273438 Z M 574.191406 193.773438"/></clipPath><clipPath id="9d7346d2e0"><path clip-rule="nonzero" d="M 592.941406 193.773438 L 643.011719 193.773438 C 647.984375 193.773438 652.753906 195.75 656.269531 199.265625 C 659.785156 202.78125 661.761719 207.550781 661.761719 212.523438 C 661.761719 217.496094 659.785156 222.265625 656.269531 225.78125 C 652.753906 229.300781 647.984375 231.273438 643.011719 231.273438 L 592.941406 231.273438 C 587.964844 231.273438 583.199219 229.300781 579.679688 225.78125 C 576.164062 222.265625 574.191406 217.496094 574.191406 212.523438 C 574.191406 207.550781 576.164062 202.78125 579.679688 199.265625 C 583.199219 195.75 587.964844 193.773438 592.941406 193.773438 Z M 592.941406 193.773438"/></clipPath><clipPath id="ae73a7c249"><path clip-rule="nonzero" d="M 0.191406 0.773438 L 87.789062 0.773438 L 87.789062 38.273438 L 0.191406 38.273438 Z M 0.191406 0.773438"/></clipPath><clipPath id="96eb3cbaee"><path clip-rule="nonzero" d="M 18.941406 0.773438 L 69.011719 0.773438 C 73.984375 0.773438 78.753906 2.75 82.269531 6.265625 C 85.785156 9.78125 87.761719 14.550781 87.761719 19.523438 C 87.761719 24.496094 85.785156 29.265625 82.269531 32.78125 C 78.753906 36.300781 73.984375 38.273438 69.011719 38.273438 L 18.941406 38.273438 C 13.964844 38.273438 9.199219 36.300781 5.679688 32.78125 C 2.164062 29.265625 0.191406 24.496094 0.191406 19.523438 C 0.191406 14.550781 2.164062 9.78125 5.679688 6.265625 C 9.199219 2.75 13.964844 0.773438 18.941406 0.773438 Z M 18.941406 0.773438"/></clipPath><clipPath id="65414dc909"><rect height="39" y="0" width="88" x="0"/></clipPath><clipPath id="714b6c6ac1"><path clip-rule="nonzero" d="M 624.261719 193.773438 L 661.761719 193.773438 L 661.761719 336 L 624.261719 336 Z M 624.261719 193.773438"/></clipPath><clipPath id="f6a25e0910"><path clip-rule="nonzero" d="M 643.011719 193.773438 C 647.984375 193.773438 652.753906 195.75 656.269531 199.265625 C 659.785156 202.78125 661.761719 207.550781 661.761719 212.523438 L 661.761719 317.222656 C 661.761719 322.195312 659.785156 326.964844 656.269531 330.480469 C 652.753906 333.996094 647.984375 335.972656 643.011719 335.972656 C 638.039062 335.972656 633.269531 333.996094 629.753906 330.480469 C 626.238281 326.964844 624.261719 322.195312 624.261719 317.222656 L 624.261719 212.523438 C 624.261719 207.550781 626.238281 202.78125 629.753906 199.265625 C 633.269531 195.75 638.039062 193.773438 643.011719 193.773438 Z M 643.011719 193.773438"/></clipPath><clipPath id="b69c037659"><path clip-rule="nonzero" d="M 0.261719 0.773438 L 37.761719 0.773438 L 37.761719 143 L 0.261719 143 Z M 0.261719 0.773438"/></clipPath><clipPath id="a55faca4ab"><path clip-rule="nonzero" d="M 19.011719 0.773438 C 23.984375 0.773438 28.753906 2.75 32.269531 6.265625 C 35.785156 9.78125 37.761719 14.550781 37.761719 19.523438 L 37.761719 124.222656 C 37.761719 129.195312 35.785156 133.964844 32.269531 137.480469 C 28.753906 140.996094 23.984375 142.972656 19.011719 142.972656 C 14.039062 142.972656 9.269531 140.996094 5.753906 137.480469 C 2.238281 133.964844 0.261719 129.195312 0.261719 124.222656 L 0.261719 19.523438 C 0.261719 14.550781 2.238281 9.78125 5.753906 6.265625 C 9.269531 2.75 14.039062 0.773438 19.011719 0.773438 Z M 19.011719 0.773438"/></clipPath><clipPath id="2e8e781e78"><rect height="143" y="0" width="38" x="0"/></clipPath><clipPath id="e6062d10c2"><path clip-rule="nonzero" d="M 625 303 L 695 303 L 695 373 L 625 373 Z M 625 303"/></clipPath><clipPath id="7c914bc6c2"><path clip-rule="nonzero" d="M 644.492188 296.058594 L 701.875 353.445312 L 675.359375 379.960938 L 617.976562 322.578125 Z M 644.492188 296.058594"/></clipPath><clipPath id="3421ec5e98"><path clip-rule="nonzero" d="M 657.75 309.320312 L 688.582031 340.148438 C 692.097656 343.667969 694.074219 348.4375 694.074219 353.410156 C 694.074219 358.382812 692.097656 363.152344 688.582031 366.667969 C 685.066406 370.183594 680.296875 372.160156 675.324219 372.160156 C 670.351562 372.160156 665.582031 370.183594 662.066406 366.667969 L 631.234375 335.835938 C 627.714844 332.320312 625.742188 327.550781 625.742188 322.578125 C 625.742188 317.605469 627.714844 312.835938 631.234375 309.320312 C 634.75 305.800781 639.519531 303.828125 644.492188 303.828125 C 649.464844 303.828125 654.234375 305.800781 657.75 309.320312 Z M 657.75 309.320312"/></clipPath><clipPath id="597afa3f2c"><path clip-rule="nonzero" d="M 0.679688 0.601562 L 69.078125 0.601562 L 69.078125 69.238281 L 0.679688 69.238281 Z M 0.679688 0.601562"/></clipPath><clipPath id="462798b143"><path clip-rule="nonzero" d="M 19.492188 -6.941406 L 76.875 50.445312 L 50.359375 76.960938 L -7.023438 19.578125 Z M 19.492188 -6.941406"/></clipPath><clipPath id="528bc7712d"><path clip-rule="nonzero" d="M 32.75 6.320312 L 63.582031 37.148438 C 67.097656 40.667969 69.074219 45.4375 69.074219 50.410156 C 69.074219 55.382812 67.097656 60.152344 63.582031 63.667969 C 60.066406 67.183594 55.296875 69.160156 50.324219 69.160156 C 45.351562 69.160156 40.582031 67.183594 37.066406 63.667969 L 6.234375 32.835938 C 2.714844 29.320312 0.742188 24.550781 0.742188 19.578125 C 0.742188 14.605469 2.714844 9.835938 6.234375 6.320312 C 9.75 2.800781 14.519531 0.828125 19.492188 0.828125 C 24.464844 0.828125 29.234375 2.800781 32.75 6.320312 Z M 32.75 6.320312"/></clipPath><clipPath id="9aba41777d"><rect height="70" y="0" width="70" x="0"/></clipPath><clipPath id="acfa8869b0"><path clip-rule="nonzero" d="M 591.972656 335.972656 L 694.511719 335.972656 L 694.511719 373.472656 L 591.972656 373.472656 Z M 591.972656 335.972656"/></clipPath><clipPath id="72a669653c"><path clip-rule="nonzero" d="M 610.722656 335.972656 L 675.714844 335.972656 C 680.6875 335.972656 685.457031 337.945312 688.972656 341.464844 C 692.488281 344.980469 694.464844 349.75 694.464844 354.722656 C 694.464844 359.695312 692.488281 364.464844 688.972656 367.980469 C 685.457031 371.496094 680.6875 373.472656 675.714844 373.472656 L 610.722656 373.472656 C 605.75 373.472656 600.980469 371.496094 597.464844 367.980469 C 593.949219 364.464844 591.972656 359.695312 591.972656 354.722656 C 591.972656 349.75 593.949219 344.980469 597.464844 341.464844 C 600.980469 337.945312 605.75 335.972656 610.722656 335.972656 Z M 610.722656 335.972656"/></clipPath><clipPath id="982111a53f"><path clip-rule="nonzero" d="M 0.972656 0.972656 L 103.511719 0.972656 L 103.511719 38.472656 L 0.972656 38.472656 Z M 0.972656 0.972656"/></clipPath><clipPath id="517f57e60c"><path clip-rule="nonzero" d="M 19.722656 0.972656 L 84.714844 0.972656 C 89.6875 0.972656 94.457031 2.945312 97.972656 6.464844 C 101.488281 9.980469 103.464844 14.75 103.464844 19.722656 C 103.464844 24.695312 101.488281 29.464844 97.972656 32.980469 C 94.457031 36.496094 89.6875 38.472656 84.714844 38.472656 L 19.722656 38.472656 C 14.75 38.472656 9.980469 36.496094 6.464844 32.980469 C 2.949219 29.464844 0.972656 24.695312 0.972656 19.722656 C 0.972656 14.75 2.949219 9.980469 6.464844 6.464844 C 9.980469 2.945312 14.75 0.972656 19.722656 0.972656 Z M 19.722656 0.972656"/></clipPath><clipPath id="5145857646"><rect height="39" y="0" width="104" x="0"/></clipPath></defs><g fill-opacity="1" fill="#ffffff"><g transform="translate(331.704452, 673.748074)"><g><path d="M 31.1875 -39.40625 L 31.1875 -34.171875 L 19.328125 -34.171875 L 19.328125 0 L 13.125 0 L 13.125 -34.171875 L 1.265625 -34.171875 L 1.265625 -39.40625 Z M 31.1875 -39.40625"/></g></g></g><g fill-opacity="1" fill="#ffffff"><g transform="translate(386.509518, 673.748074)"><g><path d="M 21.5625 0.5625 C 18.039062 0.5625 14.925781 -0.171875 12.21875 -1.640625 C 9.519531 -3.117188 7.394531 -5.367188 5.84375 -8.390625 C 4.300781 -11.421875 3.53125 -15.191406 3.53125 -19.703125 C 3.53125 -24.210938 4.300781 -27.976562 5.84375 -31 C 7.394531 -34.03125 9.519531 -36.28125 12.21875 -37.75 C 14.925781 -39.226562 18.039062 -39.96875 21.5625 -39.96875 C 25.082031 -39.96875 28.191406 -39.226562 30.890625 -37.75 C 33.597656 -36.28125 35.71875 -34.03125 37.25 -31 C 38.789062 -27.976562 39.5625 -24.210938 39.5625 -19.703125 C 39.5625 -15.191406 38.789062 -11.421875 37.25 -8.390625 C 35.71875 -5.367188 33.597656 -3.117188 30.890625 -1.640625 C 28.191406 -0.171875 25.082031 0.5625 21.5625 0.5625 Z M 21.5625 -4.953125 C 25.28125 -4.953125 28.128906 -6.128906 30.109375 -8.484375 C 32.085938 -10.835938 33.078125 -14.578125 33.078125 -19.703125 C 33.078125 -24.828125 32.085938 -28.566406 30.109375 -30.921875 C 28.128906 -33.285156 25.28125 -34.46875 21.5625 -34.46875 C 17.84375 -34.46875 14.988281 -33.285156 13 -30.921875 C 11.019531 -28.566406 10.03125 -24.828125 10.03125 -19.703125 C 10.03125 -14.578125 11.019531 -10.835938 13 -8.484375 C 14.988281 -6.128906 17.84375 -4.953125 21.5625 -4.953125 Z M 21.5625 -4.953125"/></g></g></g><g fill-opacity="1" fill="#ffffff"><g transform="translate(453.06524, 673.748074)"><g><path d="M 19 -39.40625 C 25.238281 -39.40625 30.046875 -37.757812 33.421875 -34.46875 C 36.796875 -31.1875 38.484375 -26.265625 38.484375 -19.703125 C 38.484375 -13.160156 36.796875 -8.238281 33.421875 -4.9375 C 30.046875 -1.644531 25.238281 0 19 0 L 5.546875 0 L 5.546875 -39.40625 Z M 18.546875 -5.25 C 21.546875 -5.25 24.03125 -5.722656 26 -6.671875 C 27.96875 -7.628906 29.457031 -9.171875 30.46875 -11.296875 C 31.488281 -13.429688 32 -16.234375 32 -19.703125 C 32 -23.191406 31.488281 -25.992188 30.46875 -28.109375 C 29.457031 -30.234375 27.96875 -31.773438 26 -32.734375 C 24.03125 -33.691406 21.546875 -34.171875 18.546875 -34.171875 L 11.75 -34.171875 L 11.75 -5.25 Z M 18.546875 -5.25"/></g></g></g><g fill-opacity="1" fill="#ffffff"><g transform="translate(518.542928, 673.748074)"><g><path d="M 21.5625 0.5625 C 18.039062 0.5625 14.925781 -0.171875 12.21875 -1.640625 C 9.519531 -3.117188 7.394531 -5.367188 5.84375 -8.390625 C 4.300781 -11.421875 3.53125 -15.191406 3.53125 -19.703125 C 3.53125 -24.210938 4.300781 -27.976562 5.84375 -31 C 7.394531 -34.03125 9.519531 -36.28125 12.21875 -37.75 C 14.925781 -39.226562 18.039062 -39.96875 21.5625 -39.96875 C 25.082031 -39.96875 28.191406 -39.226562 30.890625 -37.75 C 33.597656 -36.28125 35.71875 -34.03125 37.25 -31 C 38.789062 -27.976562 39.5625 -24.210938 39.5625 -19.703125 C 39.5625 -15.191406 38.789062 -11.421875 37.25 -8.390625 C 35.71875 -5.367188 33.597656 -3.117188 30.890625 -1.640625 C 28.191406 -0.171875 25.082031 0.5625 21.5625 0.5625 Z M 21.5625 -4.953125 C 25.28125 -4.953125 28.128906 -6.128906 30.109375 -8.484375 C 32.085938 -10.835938 33.078125 -14.578125 33.078125 -19.703125 C 33.078125 -24.828125 32.085938 -28.566406 30.109375 -30.921875 C 28.128906 -33.285156 25.28125 -34.46875 21.5625 -34.46875 C 17.84375 -34.46875 14.988281 -33.285156 13 -30.921875 C 11.019531 -28.566406 10.03125 -24.828125 10.03125 -19.703125 C 10.03125 -14.578125 11.019531 -10.835938 13 -8.484375 C 14.988281 -6.128906 17.84375 -4.953125 21.5625 -4.953125 Z M 21.5625 -4.953125"/></g></g></g><g fill-opacity="1" fill="#ffffff"><g transform="translate(585.09865, 673.748074)"><g/></g></g><g fill-opacity="1" fill="#ffffff"><g transform="translate(621.846749, 673.748074)"><g><path d="M 11.75 -17.953125 L 11.75 -5.171875 L 31.21875 -5.171875 L 31.21875 0 L 5.546875 0 L 5.546875 -39.40625 L 30.78125 -39.40625 L 30.78125 -34.234375 L 11.75 -34.234375 L 11.75 -23.046875 L 28.46875 -23.046875 L 28.46875 -17.953125 Z M 11.75 -17.953125"/></g></g></g><g fill-opacity="1" fill="#ffffff"><g transform="translate(678.888837, 673.748074)"><g><path d="M 11.59375 0 L 5.546875 0 L 5.546875 -39.40625 L 12.859375 -39.40625 L 30.375 -11.671875 L 31.046875 -11.78125 L 31.046875 -39.40625 L 37.0625 -39.40625 L 37.0625 0 L 30.640625 0 L 12.265625 -29.671875 L 11.59375 -29.5625 Z M 11.59375 0"/></g></g></g><g fill-opacity="1" fill="#ffffff"><g transform="translate(744.959421, 673.748074)"><g/></g></g><g fill-opacity="1" fill="#ffffff"><g transform="translate(781.707543, 673.748074)"><g><path d="M 21.5625 0.5625 C 18.039062 0.5625 14.925781 -0.171875 12.21875 -1.640625 C 9.519531 -3.117188 7.394531 -5.367188 5.84375 -8.390625 C 4.300781 -11.421875 3.53125 -15.191406 3.53125 -19.703125 C 3.53125 -24.210938 4.300781 -27.976562 5.84375 -31 C 7.394531 -34.03125 9.519531 -36.28125 12.21875 -37.75 C 14.925781 -39.226562 18.039062 -39.96875 21.5625 -39.96875 C 25.082031 -39.96875 28.191406 -39.226562 30.890625 -37.75 C 33.597656 -36.28125 35.71875 -34.03125 37.25 -31 C 38.789062 -27.976562 39.5625 -24.210938 39.5625 -19.703125 C 39.5625 -15.191406 38.789062 -11.421875 37.25 -8.390625 C 35.71875 -5.367188 33.597656 -3.117188 30.890625 -1.640625 C 28.191406 -0.171875 25.082031 0.5625 21.5625 0.5625 Z M 21.5625 -4.953125 C 25.28125 -4.953125 28.128906 -6.128906 30.109375 -8.484375 C 32.085938 -10.835938 33.078125 -14.578125 33.078125 -19.703125 C 33.078125 -24.828125 32.085938 -28.566406 30.109375 -30.921875 C 28.128906 -33.285156 25.28125 -34.46875 21.5625 -34.46875 C 17.84375 -34.46875 14.988281 -33.285156 13 -30.921875 C 11.019531 -28.566406 10.03125 -24.828125 10.03125 -19.703125 C 10.03125 -14.578125 11.019531 -10.835938 13 -8.484375 C 14.988281 -6.128906 17.84375 -4.953125 21.5625 -4.953125 Z M 21.5625 -4.953125"/></g></g></g><g fill-opacity="1" fill="#ffffff"><g transform="translate(848.263264, 673.748074)"><g><path d="M 5.546875 0 L 5.546875 -39.40625 L 20.625 -39.40625 C 23.300781 -39.40625 25.550781 -38.972656 27.375 -38.109375 C 29.195312 -37.242188 30.554688 -36.015625 31.453125 -34.421875 C 32.347656 -32.835938 32.796875 -30.957031 32.796875 -28.78125 C 32.796875 -26.363281 32.191406 -24.375 30.984375 -22.8125 C 29.773438 -21.257812 27.921875 -20.085938 25.421875 -19.296875 L 25.421875 -18.734375 C 26.679688 -18.210938 27.703125 -17.414062 28.484375 -16.34375 C 29.265625 -15.28125 29.992188 -13.6875 30.671875 -11.5625 L 34.46875 0 L 28.09375 0 L 26.3125 -5.4375 C 25.375 -8.3125 24.660156 -10.46875 24.171875 -11.90625 C 23.742188 -13.21875 23.253906 -14.242188 22.703125 -14.984375 C 22.160156 -15.722656 21.460938 -16.253906 20.609375 -16.578125 C 19.753906 -16.898438 18.660156 -17.0625 17.328125 -17.0625 L 11.75 -17.0625 L 11.75 0 Z M 20.078125 -22.109375 C 24.410156 -22.109375 26.578125 -24.144531 26.578125 -28.21875 C 26.578125 -32.3125 24.410156 -34.359375 20.078125 -34.359375 L 11.75 -34.359375 L 11.75 -22.109375 Z M 20.078125 -22.109375"/></g></g></g><g fill-opacity="1" fill="#ffffff"><g transform="translate(908.404665, 673.748074)"><g><path d="M 19 -39.40625 C 25.238281 -39.40625 30.046875 -37.757812 33.421875 -34.46875 C 36.796875 -31.1875 38.484375 -26.265625 38.484375 -19.703125 C 38.484375 -13.160156 36.796875 -8.238281 33.421875 -4.9375 C 30.046875 -1.644531 25.238281 0 19 0 L 5.546875 0 L 5.546875 -39.40625 Z M 18.546875 -5.25 C 21.546875 -5.25 24.03125 -5.722656 26 -6.671875 C 27.96875 -7.628906 29.457031 -9.171875 30.46875 -11.296875 C 31.488281 -13.429688 32 -16.234375 32 -19.703125 C 32 -23.191406 31.488281 -25.992188 30.46875 -28.109375 C 29.457031 -30.234375 27.96875 -31.773438 26 -32.734375 C 24.03125 -33.691406 21.546875 -34.171875 18.546875 -34.171875 L 11.75 -34.171875 L 11.75 -5.25 Z M 18.546875 -5.25"/></g></g></g><g fill-opacity="1" fill="#ffffff"><g transform="translate(973.882353, 673.748074)"><g><path d="M 11.75 -17.953125 L 11.75 -5.171875 L 31.21875 -5.171875 L 31.21875 0 L 5.546875 0 L 5.546875 -39.40625 L 30.78125 -39.40625 L 30.78125 -34.234375 L 11.75 -34.234375 L 11.75 -23.046875 L 28.46875 -23.046875 L 28.46875 -17.953125 Z M 11.75 -17.953125"/></g></g></g><g fill-opacity="1" fill="#ffffff"><g transform="translate(1030.924419, 673.748074)"><g><path d="M 11.59375 0 L 5.546875 0 L 5.546875 -39.40625 L 12.859375 -39.40625 L 30.375 -11.671875 L 31.046875 -11.78125 L 31.046875 -39.40625 L 37.0625 -39.40625 L 37.0625 0 L 30.640625 0 L 12.265625 -29.671875 L 11.59375 -29.5625 Z M 11.59375 0"/></g></g></g><g transform="matrix(1, 0, 0, 1, 389, 283)"><g clip-path="url(#e9d063c5d2)"><g fill-opacity="1" fill="#ffffff"><g transform="translate(0.725387, 254.166637)"><g><path d="M 16.921875 -232.703125 L 100.125 -232.703125 C 122.507812 -232.703125 140.75 -226.726562 154.84375 -214.78125 C 168.945312 -202.84375 176 -185.78125 176 -163.59375 C 176 -146.476562 171.722656 -132.140625 163.171875 -120.578125 C 154.617188 -109.015625 143.007812 -100.882812 128.34375 -96.1875 L 208.4375 0 L 141.03125 0 L 69.953125 -91.953125 L 69.953125 0 L 16.921875 0 Z M 69.953125 -129.46875 L 76.15625 -129.46875 C 81.039062 -129.46875 85.175781 -129.5625 88.5625 -129.75 C 91.945312 -129.9375 95.800781 -130.59375 100.125 -131.71875 C 104.457031 -132.851562 107.9375 -134.453125 110.5625 -136.515625 C 113.195312 -138.585938 115.453125 -141.597656 117.328125 -145.546875 C 119.210938 -149.492188 120.15625 -154.285156 120.15625 -159.921875 C 120.15625 -165.566406 119.210938 -170.363281 117.328125 -174.3125 C 115.453125 -178.257812 113.195312 -181.265625 110.5625 -183.328125 C 107.9375 -185.398438 104.457031 -187 100.125 -188.125 C 95.800781 -189.257812 91.945312 -189.921875 88.5625 -190.109375 C 85.175781 -190.296875 81.039062 -190.390625 76.15625 -190.390625 L 69.953125 -190.390625 Z M 69.953125 -129.46875"/></g></g></g><g fill-opacity="1" fill="#ffffff"><g transform="translate(176.731596, 254.166637)"><g><path d="M 163.3125 -65.4375 L 58.390625 -65.4375 C 58.390625 -55.28125 61.675781 -47.757812 68.25 -42.875 C 74.832031 -37.988281 81.984375 -35.546875 89.703125 -35.546875 C 97.785156 -35.546875 104.175781 -36.625 108.875 -38.78125 C 113.570312 -40.945312 118.929688 -45.226562 124.953125 -51.625 L 161.0625 -33.5625 C 146.019531 -8.363281 121.007812 4.234375 86.03125 4.234375 C 64.21875 4.234375 45.503906 -3.238281 29.890625 -18.1875 C 14.285156 -33.132812 6.484375 -51.140625 6.484375 -72.203125 C 6.484375 -93.265625 14.285156 -111.316406 29.890625 -126.359375 C 45.503906 -141.398438 64.21875 -148.921875 86.03125 -148.921875 C 108.96875 -148.921875 127.628906 -142.289062 142.015625 -129.03125 C 156.398438 -115.78125 163.59375 -96.835938 163.59375 -72.203125 C 163.59375 -68.816406 163.5 -66.5625 163.3125 -65.4375 Z M 59.796875 -93.078125 L 114.796875 -93.078125 C 113.671875 -100.597656 110.707031 -106.378906 105.90625 -110.421875 C 101.113281 -114.460938 94.957031 -116.484375 87.4375 -116.484375 C 79.164062 -116.484375 72.582031 -114.320312 67.6875 -110 C 62.800781 -105.675781 60.171875 -100.035156 59.796875 -93.078125 Z M 59.796875 -93.078125"/></g></g></g><g fill-opacity="1" fill="#ffffff"><g transform="translate(326.506086, 254.166637)"><g><path d="M 79.828125 -148.921875 C 88.097656 -148.921875 96.273438 -147.976562 104.359375 -146.09375 C 112.441406 -144.21875 118.460938 -142.34375 122.421875 -140.46875 L 128.34375 -137.640625 L 111.984375 -104.921875 C 100.703125 -110.941406 89.984375 -113.953125 79.828125 -113.953125 C 74.179688 -113.953125 70.179688 -113.335938 67.828125 -112.109375 C 65.484375 -110.890625 64.3125 -108.585938 64.3125 -105.203125 C 64.3125 -104.453125 64.40625 -103.703125 64.59375 -102.953125 C 64.78125 -102.203125 65.15625 -101.492188 65.71875 -100.828125 C 66.28125 -100.171875 66.796875 -99.609375 67.265625 -99.140625 C 67.742188 -98.671875 68.546875 -98.15625 69.671875 -97.59375 C 70.796875 -97.03125 71.6875 -96.609375 72.34375 -96.328125 C 73.007812 -96.046875 74.09375 -95.617188 75.59375 -95.046875 C 77.09375 -94.484375 78.21875 -94.0625 78.96875 -93.78125 C 79.726562 -93.5 81 -93.078125 82.78125 -92.515625 C 84.570312 -91.953125 85.9375 -91.578125 86.875 -91.390625 C 92.707031 -89.691406 97.785156 -87.804688 102.109375 -85.734375 C 106.429688 -83.671875 110.988281 -80.851562 115.78125 -77.28125 C 120.582031 -73.707031 124.296875 -69.191406 126.921875 -63.734375 C 129.554688 -58.285156 130.875 -52.082031 130.875 -45.125 C 130.875 -12.21875 108.023438 4.234375 62.328125 4.234375 C 51.992188 4.234375 42.171875 2.632812 32.859375 -0.5625 C 23.546875 -3.757812 16.820312 -6.957031 12.6875 -10.15625 L 6.484375 -15.234375 L 26.796875 -49.359375 C 28.296875 -48.046875 30.269531 -46.492188 32.71875 -44.703125 C 35.164062 -42.921875 39.582031 -40.476562 45.96875 -37.375 C 52.363281 -34.269531 57.914062 -32.71875 62.625 -32.71875 C 72.957031 -32.71875 78.125 -36.195312 78.125 -43.15625 C 78.125 -46.351562 76.804688 -48.84375 74.171875 -50.625 C 71.546875 -52.414062 67.082031 -54.4375 60.78125 -56.6875 C 54.476562 -58.945312 49.539062 -61.019531 45.96875 -62.90625 C 36.945312 -67.601562 29.800781 -72.910156 24.53125 -78.828125 C 19.269531 -84.753906 16.640625 -92.609375 16.640625 -102.390625 C 16.640625 -117.054688 22.328125 -128.476562 33.703125 -136.65625 C 45.078125 -144.832031 60.453125 -148.921875 79.828125 -148.921875 Z M 79.828125 -148.921875"/></g></g></g><g fill-opacity="1" fill="#ffffff"><g transform="translate(446.100016, 254.166637)"><g><path d="M 79.828125 -148.921875 C 88.097656 -148.921875 96.273438 -147.976562 104.359375 -146.09375 C 112.441406 -144.21875 118.460938 -142.34375 122.421875 -140.46875 L 128.34375 -137.640625 L 111.984375 -104.921875 C 100.703125 -110.941406 89.984375 -113.953125 79.828125 -113.953125 C 74.179688 -113.953125 70.179688 -113.335938 67.828125 -112.109375 C 65.484375 -110.890625 64.3125 -108.585938 64.3125 -105.203125 C 64.3125 -104.453125 64.40625 -103.703125 64.59375 -102.953125 C 64.78125 -102.203125 65.15625 -101.492188 65.71875 -100.828125 C 66.28125 -100.171875 66.796875 -99.609375 67.265625 -99.140625 C 67.742188 -98.671875 68.546875 -98.15625 69.671875 -97.59375 C 70.796875 -97.03125 71.6875 -96.609375 72.34375 -96.328125 C 73.007812 -96.046875 74.09375 -95.617188 75.59375 -95.046875 C 77.09375 -94.484375 78.21875 -94.0625 78.96875 -93.78125 C 79.726562 -93.5 81 -93.078125 82.78125 -92.515625 C 84.570312 -91.953125 85.9375 -91.578125 86.875 -91.390625 C 92.707031 -89.691406 97.785156 -87.804688 102.109375 -85.734375 C 106.429688 -83.671875 110.988281 -80.851562 115.78125 -77.28125 C 120.582031 -73.707031 124.296875 -69.191406 126.921875 -63.734375 C 129.554688 -58.285156 130.875 -52.082031 130.875 -45.125 C 130.875 -12.21875 108.023438 4.234375 62.328125 4.234375 C 51.992188 4.234375 42.171875 2.632812 32.859375 -0.5625 C 23.546875 -3.757812 16.820312 -6.957031 12.6875 -10.15625 L 6.484375 -15.234375 L 26.796875 -49.359375 C 28.296875 -48.046875 30.269531 -46.492188 32.71875 -44.703125 C 35.164062 -42.921875 39.582031 -40.476562 45.96875 -37.375 C 52.363281 -34.269531 57.914062 -32.71875 62.625 -32.71875 C 72.957031 -32.71875 78.125 -36.195312 78.125 -43.15625 C 78.125 -46.351562 76.804688 -48.84375 74.171875 -50.625 C 71.546875 -52.414062 67.082031 -54.4375 60.78125 -56.6875 C 54.476562 -58.945312 49.539062 -61.019531 45.96875 -62.90625 C 36.945312 -67.601562 29.800781 -72.910156 24.53125 -78.828125 C 19.269531 -84.753906 16.640625 -92.609375 16.640625 -102.390625 C 16.640625 -117.054688 22.328125 -128.476562 33.703125 -136.65625 C 45.078125 -144.832031 60.453125 -148.921875 79.828125 -148.921875 Z M 79.828125 -148.921875"/></g></g></g><g fill-opacity="1" fill="#ffffff"><g transform="translate(565.693947, 254.166637)"><g><path d="M 16.921875 0 L 16.921875 -242.578125 L 66.84375 -242.578125 L 66.84375 0 Z M 16.921875 0"/></g></g></g><g fill-opacity="1" fill="#ffffff"><g transform="translate(628.5936, 254.166637)"><g><path d="M 126.640625 -144.703125 L 184.1875 -144.703125 L 70.515625 73.34375 L 12.96875 73.34375 L 62.90625 -22.5625 L -5.640625 -144.703125 L 51.90625 -144.703125 L 92.234375 -70.515625 Z M 126.640625 -144.703125"/></g></g></g></g></g><g clip-path="url(#071de4c2e0)"><g clip-path="url(#ca182f13e5)"><g transform="matrix(1, 0, 0, 1, 310, 574)"><g clip-path="url(#abe7b891fe)"><g clip-path="url(#d0f7fc677d)"><g clip-path="url(#c4216e61c8)"><path fill-rule="nonzero" fill-opacity="1" d="M 0.703125 0.269531 L 766.230469 0.269531 L 766.230469 37.769531 L 0.703125 37.769531 Z M 0.703125 0.269531" fill="#ffffff"/></g></g></g></g></g></g><g clip-path="url(#638c57de9a)"><g clip-path="url(#e023672889)"><g transform="matrix(1, 0, 0, 1, 310, 324)"><g clip-path="url(#025c9ea3a3)"><g clip-path="url(#10ca2c2987)"><g clip-path="url(#c1912faa6c)"><path fill-rule="nonzero" fill-opacity="1" d="M 0.703125 0.0390625 L 38.203125 0.0390625 L 38.203125 285.535156 L 0.703125 285.535156 Z M 0.703125 0.0390625" fill="#ffffff"/></g></g></g></g></g></g><g clip-path="url(#81ff69c885)"><g clip-path="url(#b9abfc16dc)"><g transform="matrix(1, 0, 0, 1, 260, 324)"><g clip-path="url(#265d9b4d03)"><g clip-path="url(#0a76b2cfe4)"><g clip-path="url(#27763b09dc)"><path fill-rule="nonzero" fill-opacity="1" d="M 0.550781 0.0390625 L 88.148438 0.0390625 L 88.148438 37.539062 L 0.550781 37.539062 Z M 0.550781 0.0390625" fill="#ffffff"/></g></g></g></g></g></g><g clip-path="url(#f86ac47740)"><g clip-path="url(#6f525b6064)"><g clip-path="url(#354bdf6e66)"><g transform="matrix(1, 0, 0, 1, 260, 132)"><g clip-path="url(#c784f6d758)"><g clip-path="url(#32d39eeb36)"><g clip-path="url(#4ee5fa3d3a)"><g clip-path="url(#309ebe8b75)"><path fill-rule="nonzero" fill-opacity="1" d="M -7.386719 209.921875 L 210.128906 -7.597656 L 236.648438 18.917969 L 19.128906 236.4375 Z M -7.386719 209.921875" fill="#ffffff"/></g></g></g></g></g></g></g></g><g clip-path="url(#ab7a021c75)"><g clip-path="url(#a982631010)"><g clip-path="url(#4e0ebf72e6)"><g transform="matrix(1, 0, 0, 1, 453, 132)"><g clip-path="url(#0b0928655e)"><g clip-path="url(#56618d6780)"><g clip-path="url(#36c83b54b5)"><g clip-path="url(#6bc0354d11)"><path fill-rule="nonzero" fill-opacity="1" d="M 19.550781 -7.5625 L 164.976562 137.863281 L 138.460938 164.378906 L -6.964844 18.953125 Z M 19.550781 -7.5625" fill="#ffffff"/></g></g></g></g></g></g></g></g><g clip-path="url(#69fb023dcc)"><g clip-path="url(#2d870f15d6)"><g transform="matrix(1, 0, 0, 1, 573, 193)"><g clip-path="url(#30781c5eef)"><g clip-path="url(#822b9826e3)"><g clip-path="url(#12deb991e8)"><path fill-rule="nonzero" fill-opacity="1" d="M 0.222656 0.773438 L 37.722656 0.773438 L 37.722656 95.84375 L 0.222656 95.84375 Z M 0.222656 0.773438" fill="#ffffff"/></g></g></g></g></g></g><g clip-path="url(#04bfa0605f)"><g clip-path="url(#9d7346d2e0)"><g transform="matrix(1, 0, 0, 1, 574, 193)"><g clip-path="url(#65414dc909)"><g clip-path="url(#ae73a7c249)"><g clip-path="url(#96eb3cbaee)"><path fill-rule="nonzero" fill-opacity="1" d="M 0.191406 0.773438 L 87.789062 0.773438 L 87.789062 38.273438 L 0.191406 38.273438 Z M 0.191406 0.773438" fill="#ffffff"/></g></g></g></g></g></g><g clip-path="url(#714b6c6ac1)"><g clip-path="url(#f6a25e0910)"><g transform="matrix(1, 0, 0, 1, 624, 193)"><g clip-path="url(#2e8e781e78)"><g clip-path="url(#b69c037659)"><g clip-path="url(#a55faca4ab)"><path fill-rule="nonzero" fill-opacity="1" d="M 0.261719 0.773438 L 37.761719 0.773438 L 37.761719 143.011719 L 0.261719 143.011719 Z M 0.261719 0.773438" fill="#ffffff"/></g></g></g></g></g></g><g clip-path="url(#e6062d10c2)"><g clip-path="url(#7c914bc6c2)"><g clip-path="url(#3421ec5e98)"><g transform="matrix(1, 0, 0, 1, 625, 303)"><g clip-path="url(#9aba41777d)"><g clip-path="url(#597afa3f2c)"><g clip-path="url(#462798b143)"><g clip-path="url(#528bc7712d)"><path fill-rule="nonzero" fill-opacity="1" d="M 19.492188 -6.941406 L 76.875 50.445312 L 50.359375 76.960938 L -7.023438 19.578125 Z M 19.492188 -6.941406" fill="#ffffff"/></g></g></g></g></g></g></g></g><g clip-path="url(#acfa8869b0)"><g clip-path="url(#72a669653c)"><g transform="matrix(1, 0, 0, 1, 591, 335)"><g clip-path="url(#5145857646)"><g clip-path="url(#982111a53f)"><g clip-path="url(#517f57e60c)"><path fill-rule="nonzero" fill-opacity="1" d="M 0.972656 0.972656 L 103.511719 0.972656 L 103.511719 38.472656 L 0.972656 38.472656 Z M 0.972656 0.972656" fill="#ffffff"/></g></g></g></g></g></g></svg>